<?xml version="1.0" encoding="UTF-8"?>
<svg xmlns="http://www.w3.org/2000/svg" style="display: none;">
  <!-- Water Droplet Logo -->
  <symbol id="water-droplet-logo" viewBox="0 0 24 24">
    <path d="M12,2.5L5.5,15c0,0.4,0.1,0.8,0.2,1.2c0.1,0.4,0.3,0.7,0.6,1c0.2,0.3,0.5,0.6,0.9,0.8c0.3,0.2,0.7,0.4,1.1,0.5
    c0.4,0.1,0.8,0.2,1.2,0.2s0.8-0.1,1.2-0.2c0.4-0.1,0.7-0.3,1.1-0.5c0.3-0.2,0.6-0.5,0.9-0.8c0.2-0.3,0.4-0.7,0.6-1
    c0.1-0.4,0.2-0.8,0.2-1.2L12,2.5z" fill="currentColor"/>
    <path d="M12,5.5l4.2,8c0,1.8-0.7,3.5-2,4.8c-1.2,1.2-2.9,2-4.8,2c-1.8,0-3.5-0.7-4.8-2c-1.2-1.2-2-2.9-2-4.8L12,5.5z" 
    fill="currentColor" opacity="0.3"/>
  </symbol>

  <!-- Water Drop -->
  <symbol id="water-drop" viewBox="0 0 24 24">
    <path d="M12,2L5,14c0,3.9,3.1,7,7,7s7-3.1,7-7L12,2z" fill="currentColor"/>
  </symbol>

  <!-- Calendar Icon -->
  <symbol id="calendar-icon" viewBox="0 0 24 24">
    <path d="M19,4h-1V3c0-0.6-0.4-1-1-1s-1,0.4-1,1v1H8V3c0-0.6-0.4-1-1-1S6,2.4,6,3v1H5C3.9,4,3,4.9,3,6v14c0,1.1,0.9,2,2,2h14
    c1.1,0,2-0.9,2-2V6C21,4.9,20.1,4,19,4z M19,20H5V10h14V20z M19,8H5V6h14V8z" fill="currentColor"/>
    <rect x="7" y="12" width="2" height="2" fill="currentColor"/>
    <rect x="11" y="12" width="2" height="2" fill="currentColor"/>
    <rect x="15" y="12" width="2" height="2" fill="currentColor"/>
    <rect x="7" y="16" width="2" height="2" fill="currentColor"/>
    <rect x="11" y="16" width="2" height="2" fill="currentColor"/>
    <rect x="15" y="16" width="2" height="2" fill="currentColor"/>
  </symbol>

  <!-- User Icon -->
  <symbol id="user-icon" viewBox="0 0 24 24">
    <path d="M12,12c2.2,0,4-1.8,4-4s-1.8-4-4-4S8,5.8,8,8S9.8,12,12,12z" fill="currentColor"/>
    <path d="M12,14c-4.4,0-8,3.6-8,8c0,0.6,0.4,1,1,1h14c0.6,0,1-0.4,1-1C20,17.6,16.4,14,12,14z" fill="currentColor"/>
  </symbol>

  <!-- Folder Icon -->
  <symbol id="folder-icon" viewBox="0 0 24 24">
    <path d="M20,6h-8l-2-2H4C2.9,4,2,4.9,2,6v12c0,1.1,0.9,2,2,2h16c1.1,0,2-0.9,2-2V8C22,6.9,21.1,6,20,6z M20,18H4V8h16V18z" fill="currentColor"/>
  </symbol>

  <!-- Search Icon -->
  <symbol id="search-icon" viewBox="0 0 24 24">
    <path d="M15.5,14h-0.8l-0.3-0.3c1-1.2,1.6-2.7,1.6-4.2C16,5.9,13.1,3,9.5,3S3,5.9,3,9.5S5.9,16,9.5,16
    c1.6,0,3.1-0.6,4.2-1.6l0.3,0.3v0.8l5,5l1.5-1.5L15.5,14z M9.5,14C7,14,5,12,5,9.5S7,5,9.5,5S14,7,14,9.5S12,14,9.5,14z" fill="currentColor"/>
  </symbol>
  
  <!-- Wave Pattern -->
  <symbol id="wave-pattern" viewBox="0 0 1440 120">
    <path d="M0,32L48,37.3C96,43,192,53,288,58.7C384,64,480,64,576,74.7C672,85,768,107,864,112C960,117,1056,107,1152,96C1248,85,1344,75,1392,69.3L1440,64L1440,120L1392,120C1344,120,1248,120,1152,120C1056,120,960,120,864,120C768,120,672,120,576,120C480,120,384,120,288,120C192,120,96,120,48,120L0,120Z" fill="currentColor"/>
  </symbol>
  
  <!-- Water Molecule -->
  <symbol id="water-molecule" viewBox="0 0 24 24">
    <circle cx="12" cy="12" r="2" fill="currentColor"/>
    <circle cx="8" cy="8" r="2" fill="currentColor"/>
    <circle cx="16" cy="8" r="2" fill="currentColor"/>
    <path d="M10,10L8,8" stroke="currentColor" stroke-width="1" fill="none"/>
    <path d="M14,10L16,8" stroke="currentColor" stroke-width="1" fill="none"/>
  </symbol>
  
  <!-- Raindrops -->
  <symbol id="raindrops" viewBox="0 0 24 24">
    <path d="M7,5L5,11c0,1.1,0.9,2,2,2s2-0.9,2-2L7,5z" fill="currentColor"/>
    <path d="M12,2l-2,8c0,1.1,0.9,2,2,2s2-0.9,2-2L12,2z" fill="currentColor"/>
    <path d="M17,7l-2,6c0,1.1,0.9,2,2,2s2-0.9,2-2L17,7z" fill="currentColor"/>
  </symbol>
  
  <!-- Bubble -->
  <symbol id="bubble" viewBox="0 0 24 24">
    <circle cx="12" cy="12" r="10" fill="currentColor" opacity="0.2"/>
    <circle cx="12" cy="12" r="9" fill="none" stroke="currentColor" opacity="0.4" stroke-width="0.5"/>
    <ellipse cx="9" cy="9" rx="2" ry="2" fill="currentColor" opacity="0.5"/>
  </symbol>
  
  <!-- Ripple -->
  <symbol id="ripple" viewBox="0 0 24 24">
    <circle cx="12" cy="12" r="3" fill="none" stroke="currentColor" stroke-width="0.5"/>
    <circle cx="12" cy="12" r="6" fill="none" stroke="currentColor" stroke-width="0.5"/>
    <circle cx="12" cy="12" r="9" fill="none" stroke="currentColor" stroke-width="0.5"/>
  </symbol>
  
  <!-- Water Filter -->
  <symbol id="water-filter" viewBox="0 0 24 24">
    <path d="M12,2L4,11v9c0,1.1,0.9,2,2,2h12c1.1,0,2-0.9,2-2v-9L12,2z" fill="none" stroke="currentColor" stroke-width="1"/>
    <path d="M4,11h16" stroke="currentColor" stroke-width="1"/>
    <path d="M12,2v20" stroke="currentColor" stroke-width="1" stroke-dasharray="2,2"/>
    <circle cx="12" cy="16" r="3" fill="currentColor" opacity="0.3"/>
  </symbol>
  
  <!-- Faucet -->
  <symbol id="faucet" viewBox="0 0 24 24">
    <path d="M19,14v4c0,1.1-0.9,2-2,2h-1v-6H19z" fill="currentColor"/>
    <path d="M5,14v4c0,1.1,0.9,2,2,2h1v-6H5z" fill="currentColor"/>
    <rect x="8" y="13" width="8" height="7" fill="currentColor"/>
    <path d="M14,13V9c0-1.1-0.9-2-2-2s-2,0.9-2,2v4" fill="none" stroke="currentColor" stroke-width="1"/>
    <path d="M7,9h10" stroke="currentColor" stroke-width="1"/>
    <path d="M12,18v3" stroke="currentColor" stroke-width="1" stroke-dasharray="1,1"/>
  </symbol>
</svg>
